PathFileType	4	(X/Y/Z)	s02c0001.trc
DataRate	CameraRate	NumFrames	NumMarkers	Units	OrigDataRate	OrigDataStartFrame	OrigNumFrames
200	200	4	49	mm	200	1250	2000
Frame#	Time	racr			lacr			c7			jug			rlel			rdr			llel			ldr			s2			lic			ric			lasi			rasi			rpsi			lpsi			rgt			lgt			rth1			rth2			rth3			rth4			rlfc			rmfc			rsh1			rsh2			rsh3			rsh4			rlmal			rmmal			rcal			rtoe			rmt5			rmt1			lth1			lth2			lth4			lth3			llfc			lmfc			lsh1			lsh2			lsh3			lsh4			llmal			lmmal			lcal			ltoe			lmt1			lmt5			
		X1	Y1	Z1	X2	Y2	Z2	X3	Y3	Z3	X4	Y4	Z4	X5	Y5	Z5	X6	Y6	Z6	X7	Y7	Z7	X8	Y8	Z8	X9	Y9	Z9	X10	Y10	Z10	X11	Y11	Z11	X12	Y12	Z12	X13	Y13	Z13	X14	Y14	Z14	X15	Y15	Z15	X16	Y16	Z16	X17	Y17	Z17	X18	Y18	Z18	X19	Y19	Z19	X20	Y20	Z20	X21	Y21	Z21	X22	Y22	Z22	X23	Y23	Z23	X24	Y24	Z24	X25	Y25	Z25	X26	Y26	Z26	X27	Y27	Z27	X28	Y28	Z28	X29	Y29	Z29	X30	Y30	Z30	X31	Y31	Z31	X32	Y32	Z32	X33	Y33	Z33	X34	Y34	Z34	X35	Y35	Z35	X36	Y36	Z36	X37	Y37	Z37	X38	Y38	Z38	X39	Y39	Z39	X40	Y40	Z40	X41	Y41	Z41	X42	Y42	Z42	X43	Y43	Z43	X44	Y44	Z44	X45	Y45	Z45	X46	Y46	Z46	X47	Y47	Z47	X48	Y48	Z48	X49	Y49	Z49	
1250	6.2500	565.368896	1430.568237	564.850708	592.289368	1423.525513	161.473755	543.999817	1480.274658	357.486847	648.505127	1383.264038	365.247925	535.361511	1144.714966	634.578552	629.285583	1019.213989	778.352478	566.498901	1114.986694	127.469376	740.505798	1041.202026	21.469582	476.569519	973.981079	363.754211	634.620178	1018.178772	228.385880	601.988953	1020.694885	514.020996	681.254395	968.761719	260.396149	650.939758	971.880188	494.410553	486.282166	1000.221130	408.341492	497.913086	996.176331	323.858032	552.042786	886.615662	538.615662	567.888184	886.319275	205.025574	587.340149	802.187500	551.521851	605.314331	714.476257	548.759521	579.128357	633.189941	558.411865	638.485474	712.420776	530.717957	559.031921	499.293030	515.308472	562.513794	484.415192	411.129395	529.742065	398.010956	532.619019	543.886169	311.340607	517.365845	514.458923	230.064880	513.811707	564.233032	313.569550	483.670654	503.169678	101.237473	499.491455	515.061279	114.571030	421.607574	451.166687	53.636993	442.786285	726.926636	86.657478	498.846191	615.350647	48.344898	537.559692	657.239319	71.481064	436.098999	596.487854	759.961243	187.787827	606.404785	673.050415	194.217010	640.432007	670.412964	210.086182	569.706543	592.686035	203.332520	562.258972	495.075653	224.167267	558.699951	469.119141	322.110962	536.359192	399.489319	200.184921	554.866150	315.876404	215.303757	528.901123	228.933990	214.344711	574.346802	318.307800	250.420227	518.883362	114.160164	231.631454	541.761353	118.699181	309.736267	468.765350	58.346844	277.579559	751.471619	81.856117	249.397079	674.145996	70.409424	302.634491	646.766907	46.382572	196.290115	
1251	6.2550	565.337769	1430.565308	564.831909	592.259827	1423.544678	161.467606	543.985229	1480.292847	357.471985	648.484802	1383.268555	365.229370	535.350769	1144.729492	634.561340	629.266663	1019.219910	778.310364	566.478516	1114.996582	127.455467	740.483948	1041.209229	21.463779	476.544159	973.976440	363.738586	634.593018	1018.178040	228.370239	601.941956	1020.686768	514.025085	681.216553	968.748840	260.390686	650.908386	971.879639	494.403107	486.281525	1000.206177	408.304321	497.907745	996.155945	323.846649	552.008057	886.623413	538.611633	567.862244	886.332947	205.011810	587.301086	802.179688	551.518311	605.284302	714.478943	548.746887	579.090454	633.174988	558.398254	638.465088	712.427368	530.713135	559.013306	499.295013	515.313477	562.484009	484.412079	411.138062	529.737732	398.014923	532.614624	543.885132	311.310303	517.374084	514.459534	230.072754	513.798767	564.246155	313.571899	483.686188	503.175598	101.233009	499.484772	515.062805	114.582924	421.613617	451.166046	53.633030	442.768799	726.929016	86.645729	498.843384	615.367676	48.279476	537.619080	657.210938	71.494057	436.120483	596.473816	759.926697	187.794098	606.384033	673.041138	194.239075	640.411621	670.422058	210.078796	569.693909	592.704163	203.319214	562.239868	495.059479	224.172455	558.696838	469.121674	322.110260	536.349915	399.482422	200.190918	554.860291	315.874023	215.309708	528.914307	228.923737	214.339767	574.353271	318.316467	250.428497	519.459045	113.713303	231.359879	541.766113	118.709389	309.732635	468.775177	58.335888	277.569641	751.471619	81.844635	249.408524	674.156433	70.403038	302.652405	646.813416	46.400398	196.245209	
1252	6.2600	565.351868	1430.571289	564.823486	592.235413	1423.554199	161.463867	543.959595	1480.278687	357.450531	648.469971	1383.272461	365.225708	535.348755	1144.749634	634.558655	629.265991	1019.214600	778.282898	566.450134	1114.993164	127.432762	740.470764	1041.244019	21.435658	476.508423	973.986206	363.722931	634.545044	1018.182251	228.370926	601.941223	1020.685364	514.025574	681.207336	968.750732	260.392029	650.901550	971.887939	494.401276	486.252960	1000.211609	408.311890	497.877899	996.155762	323.842377	551.978088	886.627258	538.609680	567.845703	886.317627	204.997314	587.282410	802.188477	551.505737	605.255798	714.483826	548.756958	579.085144	633.164001	558.403870	638.441895	712.441162	530.711426	558.999573	499.303040	515.311340	562.447083	484.382996	411.127625	529.745056	398.006134	532.607239	543.874939	311.343994	517.364746	514.452454	230.062057	513.816223	564.224182	313.572876	483.676056	503.163269	101.228333	499.476898	515.058777	114.573982	421.610077	451.163116	53.627747	442.770325	726.939697	86.638260	498.847076	615.361694	48.331448	537.574097	657.237793	71.501396	436.120422	596.448242	759.936279	187.794266	606.376343	673.049683	194.211456	640.397461	670.408020	210.094238	569.687988	592.707153	203.321808	562.244873	495.046967	224.164948	558.678162	469.122589	322.092468	536.329346	399.483948	200.188095	554.843262	315.862244	215.295380	528.888916	228.944534	214.335083	574.326660	318.308777	250.406891	519.445923	113.723152	231.368698	541.756775	118.687737	309.738922	468.761993	58.356602	277.583679	751.475098	81.844002	249.389282	674.150574	70.411522	302.641327	646.807983	46.406750	196.247910	
1253	6.2650	565.328613	1430.587280	564.823853	592.222595	1423.552734	161.439545	543.935669	1480.286743	357.448486	648.448730	1383.285767	365.188660	535.333252	1144.744385	634.541504	629.261047	1019.220459	778.250366	566.422424	1115.005859	127.412720	740.459473	1041.255859	21.428961	476.495209	973.979919	363.720337	634.511047	1018.189758	228.366135	601.889465	1020.691589	514.007080	681.171387	968.761841	260.384033	650.852417	971.893494	494.399017	486.255066	1000.263184	408.299866	497.828796	996.153625	323.840973	551.953796	886.623169	538.597290	567.800659	886.324951	204.997131	587.255554	802.191345	551.510010	605.204956	714.489746	548.745728	579.061768	633.164246	558.388306	638.410645	712.436035	530.712036	558.960144	499.289124	515.311951	562.451599	484.394836	411.126312	529.721558	398.026428	532.614746	543.860901	311.338409	517.357239	514.438843	230.063889	513.805237	564.214111	313.568268	483.644806	503.176056	101.235802	499.485962	515.039734	114.565025	421.608765	451.161011	53.624073	442.787506	726.943420	86.643303	498.851135	615.369080	48.343086	537.567322	657.231140	71.502983	436.106598	596.426392	759.939087	187.786026	606.376038	673.055359	194.213043	640.369507	670.411804	210.072693	569.669556	592.692200	203.307297	562.216187	495.052124	224.158905	558.665405	469.122467	322.098877	536.328918	399.480286	200.172592	554.854614	315.867096	215.311005	528.881409	228.932770	214.328445	574.329102	318.302246	250.412292	519.444153	113.696609	231.367767	541.745789	118.704536	309.746246	468.765533	58.342697	277.560974	751.460815	81.833878	249.412079	674.161377	70.410942	302.643982	646.786133	46.392998	196.250412	
